# xmcd CD database file
#
# Track frame offsets:
#	150
#	14490
#	25050
#	36308
#	48612
#	59245
#	71616
#	86517
#	99252
#	112692
#
# Disc length: 1698 seconds
#
# Revision: 0
# Processed by: cddbd v1.5.2PL0 Copyright (c) Steve Scherf et al.
# Submitted via: jetAudio 7
#
DISCID=8006a00a
DTITLE=Jerry Reed - Country
DYEAR=1900
DGENRE=Country
TTITLE0=Mule Skinner Blues (Blue Yodel #8)
TTITLE1=When You're Hot, You're Hot
TTITLE2=Guitar Man
TTITLE3=Alabama Wild Man
TTITLE4=Amos Moses
TTITLE5=The Preacher And The Bear
TTITLE6=Lord, Mr. Ford
TTITLE7=East Bound And Down
TTITLE8=Gator
TTITLE9=She Got The Goldmine (I Got The Shaft)
EXTD=
EXTT0=
EXTT1=
EXTT2=
EXTT3=
EXTT4=
EXTT5=
EXTT6=
EXTT7=
EXTT8=
EXTT9=
PLAYORDER=
